<svg xmlns="http://www.w3.org/2000/svg" width="960" height="400" viewBox="0 0 960 400" role="img" aria-label="LLM local setup overview">
  <defs>
    <linearGradient id="bg" x1="0%" y1="0%" x2="100%" y2="100%">
      <stop offset="0%" stop-color="#0f1324"/>
      <stop offset="100%" stop-color="#1f2a52"/>
    </linearGradient>
    <marker id="arrow" markerWidth="10" markerHeight="10" refX="8" refY="3" orient="auto">
      <path d="M0,0 L8,3 L0,6 Z" fill="#6b8afd"/>
    </marker>
  </defs>
  <rect width="960" height="400" fill="url(#bg)"/>
  <text x="480" y="40" text-anchor="middle" fill="#e8ecff" font-family="system-ui,sans-serif" font-size="22" font-weight="600">Running LLMs Locally</text>
  <rect x="60" y="80" width="200" height="70" rx="10" fill="#1a2548" stroke="#6b8afd" stroke-width="2"/>
  <text x="160" y="115" text-anchor="middle" fill="#e8ecff" font-size="15" font-weight="600">Your App / IDE</text>
  <text x="160" y="135" text-anchor="middle" fill="#9aa8d8" font-size="12">OpenAI-compatible client</text>
  <line x1="260" y1="115" x2="330" y2="115" stroke="#6b8afd" stroke-width="2" marker-end="url(#arrow)"/>
  <rect x="330" y="70" width="300" height="90" rx="10" fill="#16213e" stroke="#4ecdc4" stroke-width="2"/>
  <text x="480" y="105" text-anchor="middle" fill="#e8ecff" font-size="15" font-weight="600">Local Runtime</text>
  <text x="480" y="128" text-anchor="middle" fill="#9aa8d8" font-size="12">Ollama (:11434) or LM Studio (:1234)</text>
  <line x1="630" y1="115" x2="700" y2="115" stroke="#6b8afd" stroke-width="2" marker-end="url(#arrow)"/>
  <rect x="700" y="80" width="200" height="70" rx="10" fill="#1a2548" stroke="#6b8afd" stroke-width="2"/>
  <text x="800" y="115" text-anchor="middle" fill="#e8ecff" font-size="15" font-weight="600">GGUF Model</text>
  <text x="800" y="135" text-anchor="middle" fill="#9aa8d8" font-size="12">Qwen, Llama, Gemma&</text>
  <rect x="120" y="220" width="720" height="130" rx="12" fill="#121a33" stroke="#3d4f8a"/>
  <text x="480" y="255" text-anchor="middle" fill="#b8c4f0" font-size="14">Data stays on your machine Ę No per-token API cost Ę Works offline</text>
  <text x="480" y="290" text-anchor="middle" fill="#8b97c7" font-size="13">Swap cloud URL Æ localhost with one config change</text>
  <text x="480" y="320" text-anchor="middle" fill="#6b8afd" font-size="12">Replace this diagram with a screenshot of your Ollama or LM Studio setup</text>
</svg>
