<svg xmlns="http://www.w3.org/2000/svg" width="960" height="540" viewBox="0 0 960 540" role="img" aria-label="LM Studio chat interface">
  <rect width="960" height="540" rx="14" fill="#111827" stroke="#374151" stroke-width="2"/>
  <rect width="960" height="42" rx="14" fill="#1f2937"/>
  <rect y="24" width="960" height="18" fill="#1f2937"/>
  <circle cx="24" cy="21" r="6" fill="#ef4444"/>
  <circle cx="44" cy="21" r="6" fill="#f59e0b"/>
  <circle cx="64" cy="21" r="6" fill="#22c55e"/>
  <text x="480" y="26" text-anchor="middle" fill="#9ca3af" font-family="system-ui,sans-serif" font-size="13">LM Studio</text>
  <rect x="0" y="42" width="220" height="498" fill="#0f172a"/>
  <text x="24" y="78" fill="#e5e7eb" font-family="system-ui,sans-serif" font-size="14" font-weight="600">Models</text>
  <rect x="20" y="92" width="180" height="44" rx="8" fill="#1e3a5f" stroke="#3b82f6" stroke-width="2"/>
  <text x="36" y="118" fill="#dbeafe" font-family="system-ui,sans-serif" font-size="12">Qwen3 8B Q4_K_M</text>
  <rect x="20" y="146" width="180" height="44" rx="8" fill="#111827" stroke="#374151" stroke-width="1"/>
  <text x="36" y="172" fill="#9ca3af" font-family="system-ui,sans-serif" font-size="12">Llama 3.1 8B</text>
  <rect x="240" y="58" width="700" height="460" rx="12" fill="#0b1220" stroke="#1f2937" stroke-width="1"/>
  <rect x="270" y="88" width="420" height="56" rx="10" fill="#1e293b"/>
  <text x="290" y="122" fill="#e2e8f0" font-family="system-ui,sans-serif" font-size="14">Summarize HTTP/3 vs HTTP/2</text>
  <rect x="560" y="170" width="340" height="120" rx="10" fill="#172554" stroke="#2563eb" stroke-width="1"/>
  <text x="580" y="202" fill="#dbeafe" font-family="system-ui,sans-serif" font-size="13">HTTP/3 uses QUIC over UDP instead of TCP.</text>
  <text x="580" y="226" fill="#dbeafe" font-family="system-ui,sans-serif" font-size="13">It reduces head-of-line blocking and</text>
  <text x="580" y="250" fill="#dbeafe" font-family="system-ui,sans-serif" font-size="13">improves connection setup on lossy networks.</text>
  <rect x="270" y="360" width="630" height="44" rx="10" fill="#111827" stroke="#374151" stroke-width="1"/>
  <text x="290" y="388" fill="#6b7280" font-family="system-ui,sans-serif" font-size="13">Send a message to the model...</text>
</svg>
