<svg xmlns="http://www.w3.org/2000/svg" width="960" height="420" viewBox="0 0 960 420" role="img" aria-label="How a context budget is typically spent">
  <rect width="960" height="420" fill="#0f172a"/>
  <text x="480" y="48" text-anchor="middle" fill="#e2e8f0" font-family="Inter, system-ui, sans-serif" font-size="24" font-weight="700">One request, one shared budget</text>
  <text x="480" y="78" text-anchor="middle" fill="#94a3b8" font-family="Inter, system-ui, sans-serif" font-size="14">Input and output usually share the same context window</text>

  <!-- stacked bar -->
  <rect x="120" y="130" width="720" height="64" rx="10" fill="#1e293b"/>
  <rect x="120" y="130" width="90" height="64" fill="#6366f1"/>
  <rect x="210" y="130" width="200" height="64" fill="#38bdf8"/>
  <rect x="410" y="130" width="160" height="64" fill="#22c55e"/>
  <rect x="570" y="130" width="120" height="64" fill="#f59e0b"/>
  <rect x="690" y="130" width="150" height="64" fill="#f43f5e"/>

  <text x="165" y="168" text-anchor="middle" fill="#fff" font-family="Inter, system-ui, sans-serif" font-size="12" font-weight="600">System</text>
  <text x="310" y="168" text-anchor="middle" fill="#0f172a" font-family="Inter, system-ui, sans-serif" font-size="12" font-weight="600">Chat history</text>
  <text x="490" y="168" text-anchor="middle" fill="#0f172a" font-family="Inter, system-ui, sans-serif" font-size="12" font-weight="600">Retrieved docs</text>
  <text x="630" y="168" text-anchor="middle" fill="#0f172a" font-family="Inter, system-ui, sans-serif" font-size="12" font-weight="600">Tools</text>
  <text x="765" y="168" text-anchor="middle" fill="#fff" font-family="Inter, system-ui, sans-serif" font-size="12" font-weight="600">Reply room</text>

  <!-- legend cards -->
  <g font-family="Inter, system-ui, sans-serif">
    <rect x="80" y="230" width="190" height="140" rx="12" fill="#1e293b" stroke="#334155"/>
    <circle cx="110" cy="262" r="8" fill="#6366f1"/>
    <text x="128" y="267" fill="#e2e8f0" font-size="14" font-weight="600">System / rules</text>
    <text x="100" y="300" fill="#94a3b8" font-size="13">Instructions, persona,</text>
    <text x="100" y="320" fill="#94a3b8" font-size="13">safety, product policy</text>

    <rect x="290" y="230" width="190" height="140" rx="12" fill="#1e293b" stroke="#334155"/>
    <circle cx="320" cy="262" r="8" fill="#38bdf8"/>
    <text x="338" y="267" fill="#e2e8f0" font-size="14" font-weight="600">Conversation</text>
    <text x="310" y="300" fill="#94a3b8" font-size="13">Prior turns grow every</text>
    <text x="310" y="320" fill="#94a3b8" font-size="13">message until compacted</text>

    <rect x="500" y="230" width="190" height="140" rx="12" fill="#1e293b" stroke="#334155"/>
    <circle cx="530" cy="262" r="8" fill="#22c55e"/>
    <text x="548" y="267" fill="#e2e8f0" font-size="14" font-weight="600">Retrieval</text>
    <text x="520" y="300" fill="#94a3b8" font-size="13">Files, docs, search hits</text>
    <text x="520" y="320" fill="#94a3b8" font-size="13">injected for this turn</text>

    <rect x="710" y="230" width="170" height="140" rx="12" fill="#1e293b" stroke="#334155"/>
    <circle cx="740" cy="262" r="8" fill="#f43f5e"/>
    <text x="758" y="267" fill="#e2e8f0" font-size="14" font-weight="600">Output</text>
    <text x="730" y="300" fill="#94a3b8" font-size="13">Generation also burns</text>
    <text x="730" y="320" fill="#94a3b8" font-size="13">the same window</text>
  </g>
</svg>
